# xmcd
#
# Track frame offsets:
#	225
#	13801
#	24781
#	43230
#	55405
#	78646
#	90304
#	103396
#	114072
#	124482
#	138539
#
# Disc length: 2024 seconds
#
# Revision: 0
# Processed by: cddbd v1.5.1PL0 Copyright (c) Steve Scherf et al.
# Submitted via: dBpowerAMP V4.0
#
DISCID=9207e50b
DTITLE=Boogie Doctors - Born to boogie
DYEAR=1996
DGENRE=Blues
TTITLE0=Born to boogie
TTITLE1=If you leave me
TTITLE2=All your love
TTITLE3=Because it´s saturday night
TTITLE4=I gonna quit you baby
TTITLE5=Feel so good
TTITLE6=Locking back
TTITLE7=You drive me wild
TTITLE8=Talk to me baby
TTITLE9=Little by little
TTITLE10=On the run
EXTD=
EXTT0=
EXTT1=
EXTT2=
EXTT3=
EXTT4=
EXTT5=
EXTT6=
EXTT7=
EXTT8=
EXTT9=
EXTT10=
PLAYORDER=
